<svg width="417" height="393" viewBox="0 0 417 393" fill="none" xmlns="http://www.w3.org/2000/svg">
<g filter="url(#filter0_d_41_12)">
<path d="M108.961 191.552C54.0285 294.07 9.48504 378.191 10.0045 378.676C11.3031 380.007 43.5095 376.981 58.0543 374.318C91.6892 367.903 126.103 352.531 153.115 331.955C166.361 321.788 178.698 309.442 234.15 251.102C261.552 222.416 284.408 198.814 284.798 198.814C286.486 198.814 366.742 350.716 365.314 351.2C360.379 352.652 333.497 344.906 316.744 337.039C292.589 325.782 275.447 312.952 252.331 288.866L237.657 273.494L233.241 278.214C222.722 289.471 222.073 290.56 224.281 293.707C225.45 295.281 232.982 303.027 241.033 310.774C279.733 348.295 316.095 366.935 366.093 374.923C379.339 376.981 407 379.039 407 377.949C407 376.86 377.91 321.062 339.6 248.802C305.576 184.531 303.108 179.327 304.797 177.027C305.836 175.575 312.459 168.676 319.601 161.534C341.938 139.142 339.99 142.41 349.86 113.846L358.69 88.0646L350.899 95.932C333.497 113.361 240.254 210.433 202.464 250.134C156.751 298.428 142.986 311.5 126.882 322.151C114.675 330.261 89.4815 342.364 76.4951 346.359C66.6254 349.384 52.7299 352.047 51.8208 351.079C51.3014 350.716 86.6245 284.024 130.259 202.929L209.346 55.6265L224.281 83.3441C232.462 98.5948 244.28 121.108 250.513 133.454C256.747 145.799 262.461 156.33 262.98 156.935C264.279 158.266 270.902 152.82 277.265 145.436L281.032 140.958L262.98 106.099C231.683 45.3384 211.164 6.60636 209.996 6.00117C209.346 5.63806 163.894 89.1539 108.961 191.552Z" fill="white"/>
</g>
<path d="M199.476 115.661C159.868 188.284 88.5722 321.183 89.0917 321.667C90.2605 322.756 115.454 307.99 126.363 299.759C135.843 292.618 161.426 267.563 162.725 264.053C162.985 263.327 160.647 263.932 157.66 265.384C151.297 268.41 142.076 271.557 142.076 270.71C142.076 269.742 168.049 221.811 168.569 221.811C168.828 221.811 172.854 226.531 177.399 232.22L185.581 242.508L188.178 239.603C189.607 238.03 192.983 234.157 195.71 231.131C201.554 224.716 201.814 225.805 189.866 209.828C185.711 204.26 182.334 198.814 182.464 197.724C182.464 196.635 188.438 184.773 195.71 171.217L208.957 146.768L220.644 168.554C227.008 180.537 232.592 190.341 232.981 190.341C233.371 190.341 237.397 186.831 242.072 182.474L250.383 174.727L229.995 136.479C218.826 115.54 209.476 98.3527 209.346 98.3527C209.086 98.3527 204.671 106.099 199.476 115.661Z" fill="white"/>
<path d="M273.629 236.215C270.642 239.24 267.006 243.235 265.578 245.05L262.85 248.197L269.473 259.817C273.11 266.232 275.707 271.436 275.188 271.436C274.798 271.436 270.253 269.742 265.188 267.805C260.123 265.748 255.838 264.295 255.578 264.537C254.799 265.142 278.954 289.955 286.356 296.128C295.966 304.238 327.003 323.361 328.432 322.03C329.081 321.425 280.772 230.284 279.863 230.405C279.473 230.526 276.616 233.068 273.629 236.215Z" fill="white"/>
<defs>
<filter id="filter0_d_41_12" x="0" y="0" width="417" height="393" filterUnits="userSpaceOnUse" color-interpolation-filters="sRGB">
<feFlood flood-opacity="0" result="BackgroundImageFix"/>
<feColorMatrix in="SourceAlpha" type="matrix" values="0 0 0 0 0 0 0 0 0 0 0 0 0 0 0 0 0 0 127 0" result="hardAlpha"/>
<feOffset dy="4"/>
<feGaussianBlur stdDeviation="5"/>
<feComposite in2="hardAlpha" operator="out"/>
<feColorMatrix type="matrix" values="0 0 0 0 0 0 0 0 0 0 0 0 0 0 0 0 0 0 0.25 0"/>
<feBlend mode="normal" in2="BackgroundImageFix" result="effect1_dropShadow_41_12"/>
<feBlend mode="normal" in="SourceGraphic" in2="effect1_dropShadow_41_12" result="shape"/>
</filter>
</defs>
</svg>
