<svg width="496" height="420" viewBox="0 0 496 420" fill="none" xmlns="http://www.w3.org/2000/svg">
<rect width="495.219" height="419.048" fill="black"/>
<g filter="url(#filter0_d_44_18)">
<path d="M148.07 208.575C93.1378 311.094 48.5943 395.215 49.1138 395.699C50.4124 397.031 82.6188 394.005 97.1636 391.342C130.798 384.927 165.213 369.555 192.224 348.979C205.471 338.812 217.808 326.466 273.26 268.126C300.661 239.44 323.517 215.838 323.907 215.838C325.595 215.838 405.851 367.74 404.423 368.224C399.488 369.676 372.606 361.93 355.853 354.062C331.699 342.806 314.557 329.976 291.441 305.89L276.766 290.518L272.351 295.238C261.832 306.495 261.182 307.584 263.39 310.731C264.559 312.305 272.091 320.051 280.143 327.797C318.842 365.319 355.204 383.959 405.202 391.947C418.448 394.005 446.109 396.062 446.109 394.973C446.109 393.884 417.02 338.085 378.71 265.826C344.685 201.555 342.218 196.351 343.906 194.051C344.945 192.598 351.568 185.699 358.711 178.558C381.047 156.166 379.099 159.434 388.969 130.869L397.8 105.088L390.008 112.956C372.606 130.385 279.363 227.457 241.573 267.158C195.861 315.451 182.095 328.524 165.992 339.175C153.784 347.284 128.591 359.388 115.604 363.382C105.735 366.408 91.8391 369.071 90.9301 368.103C90.4106 367.74 125.734 301.048 169.368 219.953L248.456 72.6503L263.39 100.368C271.571 115.619 283.389 138.132 289.623 150.477C295.856 162.823 301.57 173.353 302.09 173.959C303.388 175.29 310.011 169.843 316.375 162.46L320.141 157.982L302.09 123.123C270.792 62.3622 250.274 23.6302 249.105 23.025C248.456 22.6619 203.003 106.178 148.07 208.575Z" fill="white"/>
</g>
<path d="M238.586 132.685C198.977 205.307 127.681 338.207 128.201 338.691C129.37 339.78 154.563 325.013 165.472 316.783C174.952 309.642 200.535 284.587 201.834 281.077C202.094 280.351 199.756 280.956 196.769 282.408C190.406 285.434 181.186 288.581 181.186 287.734C181.186 286.766 207.159 238.835 207.678 238.835C207.938 238.835 211.963 243.555 216.509 249.244L224.69 259.532L227.287 256.627C228.716 255.054 232.092 251.181 234.82 248.155C240.664 241.74 240.923 242.829 228.976 226.852C224.82 221.284 221.444 215.838 221.573 214.748C221.573 213.659 227.547 201.797 234.82 188.241L248.066 163.792L259.754 185.578C266.117 197.561 271.701 207.365 272.091 207.365C272.48 207.365 276.506 203.855 281.181 199.498L289.493 191.751L269.104 153.503C257.935 132.564 248.585 115.377 248.455 115.377C248.196 115.377 243.78 123.123 238.586 132.685Z" fill="white"/>
<path d="M312.738 253.238C309.752 256.264 306.115 260.258 304.687 262.074L301.96 265.221L308.583 276.841C312.219 283.256 314.816 288.46 314.297 288.46C313.907 288.46 309.362 286.766 304.297 284.829C299.233 282.771 294.947 281.319 294.687 281.561C293.908 282.166 318.063 306.979 325.465 313.152C335.075 321.261 366.113 340.385 367.541 339.054C368.19 338.449 319.881 247.307 318.972 247.428C318.582 247.549 315.725 250.091 312.738 253.238Z" fill="white"/>
<defs>
<filter id="filter0_d_44_18" x="39.1093" y="17.0238" width="417" height="393" filterUnits="userSpaceOnUse" color-interpolation-filters="sRGB">
<feFlood flood-opacity="0" result="BackgroundImageFix"/>
<feColorMatrix in="SourceAlpha" type="matrix" values="0 0 0 0 0 0 0 0 0 0 0 0 0 0 0 0 0 0 127 0" result="hardAlpha"/>
<feOffset dy="4"/>
<feGaussianBlur stdDeviation="5"/>
<feComposite in2="hardAlpha" operator="out"/>
<feColorMatrix type="matrix" values="0 0 0 0 0 0 0 0 0 0 0 0 0 0 0 0 0 0 0.25 0"/>
<feBlend mode="normal" in2="BackgroundImageFix" result="effect1_dropShadow_44_18"/>
<feBlend mode="normal" in="SourceGraphic" in2="effect1_dropShadow_44_18" result="shape"/>
</filter>
</defs>
</svg>
