<svg width="609" height="563" viewBox="0 0 609 563" fill="none" xmlns="http://www.w3.org/2000/svg">
<g filter="url(#filter0_d_12_599)">
<path d="M204.836 191.552C149.903 294.07 105.36 378.191 105.879 378.676C107.178 380.007 139.384 376.981 153.929 374.318C187.564 367.903 221.978 352.531 248.99 331.955C262.236 321.788 274.573 309.442 330.025 251.102C357.427 222.416 380.283 198.814 380.672 198.814C382.361 198.814 462.617 350.716 461.188 351.2C456.253 352.652 429.372 344.906 412.619 337.039C388.464 325.782 371.322 312.952 348.206 288.866L333.532 273.494L329.116 278.214C318.597 289.471 317.948 290.56 320.156 293.707C321.324 295.281 328.856 303.027 336.908 310.774C375.608 348.295 411.97 366.935 461.967 374.923C475.214 376.981 502.875 379.039 502.875 377.949C502.875 376.86 473.785 321.062 435.475 248.802C401.451 184.531 398.983 179.327 400.671 177.027C401.71 175.575 408.333 168.676 415.476 161.534C437.813 139.142 435.865 142.41 445.734 113.846L454.565 88.0646L446.773 95.932C429.372 113.361 336.129 210.433 298.338 250.134C252.626 298.428 238.86 311.5 222.757 322.151C210.55 330.261 185.356 342.364 172.37 346.359C162.5 349.384 148.605 352.047 147.696 351.079C147.176 350.716 182.499 284.024 226.134 202.929L305.221 55.6265L320.156 83.3441C328.337 98.5948 340.155 121.108 346.388 133.454C352.622 145.799 358.336 156.33 358.855 156.935C360.154 158.266 366.777 152.82 373.14 145.436L376.906 140.958L358.855 106.099C327.558 45.3384 307.039 6.60637 305.87 6.00118C305.221 5.63807 259.769 89.1539 204.836 191.552Z" fill="white"/>
</g>
<path d="M295.351 115.661C255.743 188.284 184.447 321.183 184.966 321.667C186.135 322.756 211.329 307.99 222.238 299.759C231.718 292.618 257.301 267.563 258.6 264.053C258.859 263.327 256.522 263.932 253.535 265.384C247.171 268.41 237.951 271.557 237.951 270.71C237.951 269.742 263.924 221.811 264.443 221.811C264.703 221.811 268.729 226.531 273.274 232.22L281.456 242.508L284.053 239.603C285.481 238.03 288.858 234.157 291.585 231.131C297.429 224.716 297.689 225.805 285.741 209.828C281.586 204.261 278.209 198.814 278.339 197.725C278.339 196.635 284.313 184.773 291.585 171.217L304.831 146.768L316.519 168.554C322.882 180.537 328.467 190.341 328.856 190.341C329.246 190.341 333.272 186.831 337.947 182.474L346.258 174.727L325.869 136.48C314.701 115.54 305.351 98.3527 305.221 98.3527C304.961 98.3527 300.546 106.099 295.351 115.661Z" fill="white"/>
<path d="M369.504 236.214C366.517 239.24 362.881 243.235 361.452 245.05L358.725 248.197L365.348 259.817C368.984 266.232 371.582 271.436 371.062 271.436C370.673 271.436 366.127 269.742 361.063 267.805C355.998 265.748 351.712 264.295 351.453 264.537C350.674 265.142 374.828 289.955 382.231 296.128C391.841 304.238 422.878 323.361 424.307 322.03C424.956 321.425 376.646 230.284 375.737 230.405C375.348 230.526 372.491 233.067 369.504 236.214Z" fill="white"/>
<path d="M447.096 501.53C447.12 507.621 446.712 513.823 447.096 519.915C447.192 521.355 445.728 524.313 448.872 524.044L465.506 448.496L477.674 446.455L445.296 539.455C445.224 526.829 445.368 514.156 445.296 501.546H447.096V501.53Z" fill="#4FD9C4"/>
<path d="M499.585 539.455V504.546H504.852V519.716H522.255V504.546H527.539V539.455H522.255V524.233H504.852V539.455H499.585ZM562.459 504.546H567.743V527.506C567.743 529.949 567.169 532.114 566.021 534C564.873 535.875 563.26 537.352 561.18 538.432C559.101 539.5 556.663 540.034 553.868 540.034C551.084 540.034 548.652 539.5 546.572 538.432C544.493 537.352 542.879 535.875 541.731 534C540.584 532.114 540.01 529.949 540.01 527.506V504.546H545.277V527.08C545.277 528.659 545.623 530.063 546.317 531.29C547.021 532.517 548.015 533.483 549.3 534.188C550.584 534.881 552.106 535.227 553.868 535.227C555.64 535.227 557.169 534.881 558.453 534.188C559.748 533.483 560.737 532.517 561.419 531.29C562.112 530.063 562.459 528.659 562.459 527.08V504.546ZM580.2 539.455V504.546H592.984C595.462 504.546 597.513 504.955 599.138 505.773C600.763 506.58 601.979 507.676 602.786 509.063C603.592 510.438 603.996 511.989 603.996 513.716C603.996 515.171 603.729 516.398 603.195 517.398C602.661 518.386 601.945 519.182 601.047 519.784C600.161 520.375 599.183 520.807 598.115 521.08V521.421C599.274 521.477 600.405 521.852 601.507 522.546C602.621 523.227 603.541 524.199 604.269 525.46C604.996 526.722 605.359 528.256 605.359 530.063C605.359 531.847 604.939 533.449 604.098 534.869C603.269 536.278 601.984 537.398 600.246 538.227C598.507 539.046 596.286 539.455 593.581 539.455H580.2ZM585.467 534.938H593.07C595.592 534.938 597.399 534.449 598.49 533.472C599.581 532.494 600.127 531.273 600.127 529.807C600.127 528.705 599.848 527.693 599.291 526.773C598.734 525.852 597.939 525.119 596.905 524.574C595.882 524.028 594.666 523.756 593.257 523.756H585.467V534.938ZM585.467 519.648H592.524C593.706 519.648 594.769 519.421 595.712 518.966C596.666 518.511 597.422 517.875 597.979 517.057C598.547 516.227 598.831 515.25 598.831 514.125C598.831 512.682 598.325 511.472 597.314 510.494C596.303 509.517 594.751 509.028 592.661 509.028H585.467V519.648Z" fill="#4FD9C4"/>
<path d="M18.1024 539.545H2.28421L26.3865 469.727H45.4092L69.4774 539.545H53.6592L36.1706 485.682H35.6251L18.1024 539.545ZM17.1138 512.102H54.4774V523.625H17.1138V512.102Z" fill="white"/>
<path d="M99.9542 469.636C105.091 469.636 109.375 470.398 112.807 471.92C116.238 473.443 118.818 475.557 120.545 478.261C122.272 480.943 123.136 484.035 123.136 487.535C123.136 490.262 122.591 492.66 121.5 494.728C120.409 496.773 118.909 498.455 117 499.773C115.114 501.068 112.954 501.989 110.523 502.535V503.216C113.182 503.33 115.67 504.08 117.988 505.466C120.329 506.853 122.227 508.796 123.682 511.295C125.136 513.773 125.863 516.728 125.863 520.16C125.863 523.864 124.943 527.171 123.103 530.08C121.284 532.966 118.591 535.25 115.023 536.932C111.454 538.614 107.056 539.455 101.829 539.455H72.0001V469.636H99.9542ZM86.7609 498.853H86.7726V508.841H86.7609V527.386H98.795C102.908 527.386 105.909 526.603 107.795 525.035C109.681 523.444 110.625 521.33 110.625 518.694C110.625 516.762 110.159 515.057 109.228 513.58C108.296 512.102 106.966 510.944 105.238 510.103C103.534 509.262 101.5 508.841 99.1359 508.841H89.4181L92.8302 498.853H97.7042C99.727 498.853 101.523 498.5 103.091 497.795C104.682 497.068 105.932 496.046 106.841 494.728C107.773 493.41 108.238 491.83 108.238 489.989C108.238 487.466 107.34 485.432 105.545 483.886C103.772 482.341 101.25 481.569 97.9777 481.569H86.7609V498.853Z" fill="white"/>
<path d="M196.091 504.636C196.091 512.25 194.648 518.727 191.761 524.068C188.898 529.409 184.989 533.489 180.034 536.307C175.102 539.102 169.557 540.5 163.398 540.5C157.193 540.5 151.625 539.091 146.693 536.273C141.761 533.455 137.864 529.375 135 524.034C132.136 518.693 130.704 512.227 130.704 504.636C130.704 497.023 132.136 490.545 135 485.205C137.864 479.864 141.761 475.795 146.693 473C151.625 470.182 157.193 468.773 163.398 468.773C169.557 468.773 175.102 470.182 180.034 473C184.989 475.795 188.898 479.864 191.761 485.205C194.648 490.545 196.091 497.023 196.091 504.636ZM181.125 504.636C181.125 499.705 180.386 495.545 178.909 492.159C177.454 488.773 175.398 486.205 172.739 484.455C170.079 482.705 166.966 481.83 163.398 481.83C159.829 481.83 156.716 482.705 154.057 484.455C151.398 486.205 149.329 488.773 147.852 492.159C146.398 495.545 145.67 499.705 145.67 504.636C145.67 509.568 146.398 513.727 147.852 517.114C149.329 520.5 151.398 523.068 154.057 524.818C156.716 526.568 159.829 527.443 163.398 527.443C166.966 527.443 170.079 526.568 172.739 524.818C175.398 523.068 177.454 520.5 178.909 517.114C180.386 513.727 181.125 509.568 181.125 504.636Z" fill="white"/>
<path d="M266.329 469.727V539.545H253.579L223.204 495.602H222.693V539.545H207.932V469.727H220.886L251.023 513.636H251.636V469.727H266.329Z" fill="white"/>
<path d="M276.273 481.898V469.727H333.614V481.898H312.239V539.545H297.648V481.898H276.273Z" fill="white"/>
<path d="M382.489 498.444V510.614H352.624V527.285H385.045V539.455H337.864V498.464H354.585V498.444H382.489ZM384.908 481.807H352.624V492.908H337.864V469.636H384.908V481.807Z" fill="white"/>
<path d="M449.511 469.727V539.545H436.761L406.386 495.602H405.875V539.545H391.113V469.727H404.068L434.204 513.636H434.818V469.727H449.511Z" fill="white"/>
<defs>
<filter id="filter0_d_12_599" x="95.8748" y="0" width="417" height="393" filterUnits="userSpaceOnUse" color-interpolation-filters="sRGB">
<feFlood flood-opacity="0" result="BackgroundImageFix"/>
<feColorMatrix in="SourceAlpha" type="matrix" values="0 0 0 0 0 0 0 0 0 0 0 0 0 0 0 0 0 0 127 0" result="hardAlpha"/>
<feOffset dy="4"/>
<feGaussianBlur stdDeviation="5"/>
<feComposite in2="hardAlpha" operator="out"/>
<feColorMatrix type="matrix" values="0 0 0 0 0 0 0 0 0 0 0 0 0 0 0 0 0 0 0.25 0"/>
<feBlend mode="normal" in2="BackgroundImageFix" result="effect1_dropShadow_12_599"/>
<feBlend mode="normal" in="SourceGraphic" in2="effect1_dropShadow_12_599" result="shape"/>
</filter>
</defs>
</svg>
