<svg width="25" height="25" viewBox="0 0 25 25" fill="none" xmlns="http://www.w3.org/2000/svg">
<path fill-rule="evenodd" clip-rule="evenodd" d="M8.63863 13.2365C8.44335 13.0412 8.33365 12.7763 8.33365 12.5001C8.33365 12.2238 8.44335 11.9589 8.63863 11.7636L14.5313 5.87089C14.6274 5.7714 14.7424 5.69204 14.8695 5.63745C14.9965 5.58286 15.1332 5.55412 15.2715 5.55292C15.4099 5.55172 15.547 5.57807 15.675 5.63045C15.8031 5.68283 15.9194 5.76017 16.0172 5.85798C16.115 5.95578 16.1923 6.07209 16.2447 6.2001C16.2971 6.32812 16.3234 6.46529 16.3222 6.6036C16.321 6.74191 16.2923 6.8786 16.2377 7.00569C16.1831 7.13277 16.1037 7.24771 16.0043 7.3438L10.848 12.5001L16.0043 17.6563C16.194 17.8528 16.299 18.1159 16.2966 18.389C16.2943 18.6621 16.1847 18.9234 15.9916 19.1165C15.7984 19.3097 15.5372 19.4192 15.2641 19.4216C14.9909 19.424 14.7278 19.319 14.5313 19.1292L8.63863 13.2365Z" fill="#544F4F"/>
</svg>
