<svg width="20" height="20" viewBox="0 0 20 20" fill="none" xmlns="http://www.w3.org/2000/svg">
<path fill-rule="evenodd" clip-rule="evenodd" d="M10.5893 13.089C10.433 13.2453 10.2211 13.333 10.0001 13.333C9.77915 13.333 9.56723 13.2453 9.41096 13.089L4.69679 8.37488C4.6172 8.29801 4.55371 8.20605 4.51004 8.10438C4.46636 8.00271 4.44338 7.89336 4.44241 7.78271C4.44145 7.67206 4.46254 7.56233 4.50444 7.45992C4.54634 7.3575 4.60822 7.26446 4.68646 7.18622C4.7647 7.10797 4.85775 7.04609 4.96016 7.00419C5.06257 6.96229 5.17231 6.94121 5.28296 6.94217C5.39361 6.94313 5.50296 6.96612 5.60463 7.00979C5.7063 7.05347 5.79825 7.11695 5.87512 7.19655L10.0001 11.3215L14.1251 7.19655C14.2823 7.04475 14.4928 6.96075 14.7113 6.96265C14.9298 6.96455 15.1388 7.05219 15.2933 7.2067C15.4478 7.3612 15.5355 7.57021 15.5374 7.78871C15.5393 8.00721 15.4553 8.21771 15.3035 8.37488L10.5893 13.089Z" fill="#544F4F"/>
</svg>
