<svg width="25" height="25" viewBox="0 0 25 25" fill="none" xmlns="http://www.w3.org/2000/svg">
<path fill-rule="evenodd" clip-rule="evenodd" d="M16.3614 11.7635C16.5566 11.9588 16.6664 12.2237 16.6664 12.4999C16.6664 12.7762 16.5566 13.0411 16.3614 13.2364L10.4687 19.1291C10.3726 19.2286 10.2576 19.308 10.1305 19.3626C10.0035 19.4171 9.86676 19.4459 9.72845 19.4471C9.59014 19.4483 9.45297 19.4219 9.32496 19.3696C9.19694 19.3172 9.08064 19.2398 8.98283 19.142C8.88503 19.0442 8.80768 18.9279 8.7553 18.7999C8.70293 18.6719 8.67657 18.5347 8.67777 18.3964C8.67898 18.2581 8.70771 18.1214 8.7623 17.9943C8.8169 17.8672 8.89625 17.7523 8.99574 17.6562L14.152 12.4999L8.99574 7.34369C8.80599 7.14723 8.701 6.88411 8.70337 6.61098C8.70575 6.33786 8.8153 6.0766 9.00843 5.88347C9.20156 5.69033 9.46283 5.58078 9.73595 5.57841C10.0091 5.57604 10.2722 5.68103 10.4687 5.87078L16.3614 11.7635Z" fill="#544F4F"/>
</svg>
