<svg width="48" height="48" viewBox="0 0 48 48" fill="none" xmlns="http://www.w3.org/2000/svg">
<path d="M16.8 34L24 26.8L31.2 34L34 31.2L26.8 24L34 16.8L31.2 14L24 21.2L16.8 14L14 16.8L21.2 24L14 31.2L16.8 34ZM24 44C21.2333 44 18.6333 43.4747 16.2 42.424C13.7667 41.3733 11.65 39.9487 9.85 38.15C8.05 36.3513 6.62534 34.2347 5.576 31.8C4.52667 29.3653 4.00134 26.7653 4 24C3.99867 21.2347 4.524 18.6347 5.576 16.2C6.628 13.7653 8.05267 11.6487 9.85 9.85C11.6473 8.05133 13.764 6.62667 16.2 5.576C18.636 4.52533 21.236 4 24 4C26.764 4 29.364 4.52533 31.8 5.576C34.236 6.62667 36.3527 8.05133 38.15 9.85C39.9473 11.6487 41.3727 13.7653 42.426 16.2C43.4793 18.6347 44.004 21.2347 44 24C43.996 26.7653 43.4707 29.3653 42.424 31.8C41.3773 34.2347 39.9527 36.3513 38.15 38.15C36.3473 39.9487 34.2307 41.374 31.8 42.426C29.3693 43.478 26.7693 44.0027 24 44ZM24 40C28.4667 40 32.25 38.45 35.35 35.35C38.45 32.25 40 28.4667 40 24C40 19.5333 38.45 15.75 35.35 12.65C32.25 9.55 28.4667 8 24 8C19.5333 8 15.75 9.55 12.65 12.65C9.55 15.75 8 19.5333 8 24C8 28.4667 9.55 32.25 12.65 35.35C15.75 38.45 19.5333 40 24 40Z" fill="#544F4F"/>
</svg>
