<svg width="80" height="80" viewBox="0 0 80 80" fill="none" xmlns="http://www.w3.org/2000/svg">
<path d="M63.3327 13.3334C65.9848 13.3334 68.5284 14.3869 70.4038 16.2623C72.2791 18.1377 73.3327 20.6812 73.3327 23.3334V56.6667C73.3327 59.3189 72.2791 61.8624 70.4038 63.7378C68.5284 65.6131 65.9848 66.6667 63.3327 66.6667H16.666C14.0139 66.6667 11.4703 65.6131 9.59495 63.7378C7.71958 61.8624 6.66602 59.3189 6.66602 56.6667V23.3334C6.66602 20.6812 7.71958 18.1377 9.59495 16.2623C11.4703 14.3869 14.0139 13.3334 16.666 13.3334H63.3327ZM66.666 33.3334H13.3327V56.6667C13.3328 57.4832 13.6325 58.2712 14.1751 58.8813C14.7176 59.4914 15.4652 59.8812 16.276 59.9767L16.666 60H63.3327C64.1491 59.9999 64.9371 59.7002 65.5473 59.1577C66.1574 58.6151 66.5472 57.8675 66.6427 57.0567L66.666 56.6667V33.3334ZM56.666 43.3334C57.5156 43.3343 58.3328 43.6596 58.9506 44.2429C59.5684 44.8261 59.9401 45.6232 59.9899 46.4714C60.0397 47.3195 59.7638 48.1546 59.2185 48.8061C58.6732 49.4577 57.8997 49.8764 57.056 49.9767L56.666 50H46.666C45.8164 49.9991 44.9992 49.6738 44.3815 49.0905C43.7637 48.5073 43.3919 47.7102 43.3421 46.8621C43.2923 46.0139 43.5683 45.1788 44.1136 44.5273C44.6589 43.8758 45.4324 43.4571 46.276 43.3567L46.666 43.3334H56.666ZM63.3327 20H16.666C15.782 20 14.9341 20.3512 14.309 20.9764C13.6839 21.6015 13.3327 22.4493 13.3327 23.3334V26.6667H66.666V23.3334C66.666 22.4493 66.3148 21.6015 65.6897 20.9764C65.0646 20.3512 64.2167 20 63.3327 20Z" fill="black" fill-opacity="0.7"/>
</svg>
