<svg width="48" height="48" viewBox="0 0 48 48" fill="none" xmlns="http://www.w3.org/2000/svg">
<path d="M2.00006 4H19.1601L22.1341 17.38L18.4141 21.1C20.6013 24.504 23.4955 27.3975 26.9001 29.584L30.6201 25.866L44.0001 28.84V46H42.0001C34.3007 46.0131 26.7629 43.7928 20.3001 39.608C15.5345 36.5239 11.4761 32.4655 8.39206 27.7C4.2073 21.2372 1.98693 13.6993 2.00006 6V4ZM6.05406 8C6.39108 14.2398 8.35551 20.2828 11.7521 25.528C14.5287 29.8179 18.1821 33.4714 22.4721 36.248C27.7173 39.6445 33.7602 41.609 40.0001 41.946V32.048L31.8941 30.248L27.5461 34.598L26.2201 33.844C21.1853 30.9829 17.0171 26.8147 14.1561 21.78L13.4021 20.454L17.7521 16.106L15.9521 8H6.05406Z" fill="#544F4F"/>
</svg>
