<svg width="35" height="35" viewBox="0 0 35 35" fill="none" xmlns="http://www.w3.org/2000/svg">
<path d="M17.4999 30.6252C19.2235 30.6252 20.9302 30.2857 22.5226 29.6261C24.115 28.9665 25.5619 27.9997 26.7807 26.7809C27.9995 25.5622 28.9662 24.1153 29.6258 22.5229C30.2854 20.9305 30.6249 19.2238 30.6249 17.5002C30.6249 15.7766 30.2854 14.0698 29.6258 12.4774C28.9662 10.885 27.9995 9.43816 26.7807 8.21939C25.5619 7.00062 24.115 6.03384 22.5226 5.37424C20.9302 4.71465 19.2235 4.37516 17.4999 4.37516C14.019 4.37516 10.6806 5.75797 8.21914 8.21939C5.75773 10.6808 4.37492 14.0192 4.37492 17.5002C4.37492 20.9811 5.75773 24.3195 8.21914 26.7809C10.6806 29.2424 14.019 30.6252 17.4999 30.6252ZM33.5416 17.5002C33.5416 26.3595 26.3593 33.5418 17.4999 33.5418C8.64054 33.5418 1.45825 26.3595 1.45825 17.5002C1.45825 8.64079 8.64054 1.4585 17.4999 1.4585C26.3593 1.4585 33.5416 8.64079 33.5416 17.5002ZM13.8905 13.8922C12.9333 14.8495 12.3955 16.1478 12.3955 17.5016C12.3955 18.8554 12.9333 20.1537 13.8905 21.111C14.8478 22.0683 16.1461 22.6061 17.4999 22.6061C18.8537 22.6061 20.152 22.0683 21.1093 21.111L22.1403 20.0785L24.2024 22.142L23.1714 23.1731C22.0497 24.2949 20.6205 25.0588 19.0646 25.3683C17.5087 25.6778 15.8959 25.519 14.4303 24.9119C12.9647 24.3049 11.712 23.2768 10.8306 21.9578C9.94925 20.6388 9.47883 19.088 9.47883 17.5016C9.47883 15.9152 9.94925 14.3645 10.8306 13.0454C11.712 11.7264 12.9647 10.6984 14.4303 10.0913C15.8959 9.48424 17.5087 9.32542 19.0646 9.63493C20.6205 9.94445 22.0497 10.7084 23.1714 11.8302L24.2024 12.8612L22.1403 14.9233L21.1093 13.8922C20.6353 13.4182 20.0726 13.0422 19.4533 12.7857C18.834 12.5291 18.1703 12.3971 17.4999 12.3971C16.8296 12.3971 16.1658 12.5291 15.5465 12.7857C14.9272 13.0422 14.3645 13.4182 13.8905 13.8922Z" fill="#544F4F"/>
</svg>
