<svg width="48" height="48" viewBox="0 0 48 48" fill="none" xmlns="http://www.w3.org/2000/svg">
<path d="M24 41.9998C18.9667 41.9998 14.7087 40.2578 11.226 36.7738C7.74333 33.2898 6.00133 29.0318 6 23.9998C6 19.3998 7.5 15.4078 10.5 12.0238C13.5 8.63984 17.3333 6.66517 22 6.09984C22.4333 6.03317 22.8167 6.09184 23.15 6.27584C23.4833 6.45984 23.75 6.70117 23.95 6.99984C24.15 7.2985 24.2587 7.6485 24.276 8.04984C24.2933 8.45117 24.168 8.8345 23.9 9.19984C23.3333 10.0665 22.908 10.9832 22.624 11.9498C22.34 12.9165 22.1987 13.9332 22.2 14.9998C22.2 17.9998 23.25 20.5498 25.35 22.6498C27.45 24.7498 30 25.7998 33 25.7998C34.0333 25.7998 35.0587 25.6498 36.076 25.3498C37.0933 25.0498 38.0013 24.6332 38.8 24.0998C39.1667 23.8665 39.542 23.7585 39.926 23.7758C40.31 23.7932 40.6513 23.8845 40.95 24.0498C41.2833 24.2165 41.542 24.4665 41.726 24.7998C41.91 25.1332 41.968 25.5332 41.9 25.9998C41.4333 30.5998 39.4753 34.4165 36.026 37.4498C32.5767 40.4832 28.568 41.9998 24 41.9998ZM24 37.9998C26.9333 37.9998 29.5667 37.1912 31.9 35.5738C34.2333 33.9565 35.9333 31.8485 37 29.2498C36.3333 29.4165 35.6667 29.5498 35 29.6498C34.3333 29.7498 33.6667 29.7998 33 29.7998C28.9 29.7998 25.408 28.3578 22.524 25.4738C19.64 22.5898 18.1987 19.0985 18.2 14.9998C18.2 14.3332 18.25 13.6665 18.35 12.9998C18.45 12.3332 18.5833 11.6665 18.75 10.9998C16.15 12.0665 14.0413 13.7665 12.424 16.0998C10.8067 18.4332 9.99867 21.0665 10 23.9998C10 27.8665 11.3667 31.1665 14.1 33.8998C16.8333 36.6332 20.1333 37.9998 24 37.9998Z" fill="#544F4F"/>
</svg>
