<svg width="48" height="48" viewBox="0 0 48 48" fill="none" xmlns="http://www.w3.org/2000/svg">
<path d="M18.0007 20C17.4703 20 16.9616 20.2107 16.5865 20.5858C16.2115 20.9609 16.0007 21.4696 16.0007 22V30H20.0007V24H26.0007V29L33.0007 22L26.0007 15V20H18.0007ZM25.4147 2.78601L45.2147 22.586C45.5897 22.9611 45.8003 23.4697 45.8003 24C45.8003 24.5303 45.5897 25.039 45.2147 25.414L25.4147 45.214C25.0397 45.589 24.5311 45.7996 24.0007 45.7996C23.4704 45.7996 22.9618 45.589 22.5867 45.214L2.78674 25.414C2.4118 25.039 2.20117 24.5303 2.20117 24C2.20117 23.4697 2.4118 22.9611 2.78674 22.586L22.5867 2.78601C22.9618 2.41107 23.4704 2.20044 24.0007 2.20044C24.5311 2.20044 25.0397 2.41107 25.4147 2.78601Z" fill="#544F4F"/>
</svg>
