<svg width="21" height="20" viewBox="0 0 21 20" fill="none" xmlns="http://www.w3.org/2000/svg">
<path d="M8.37772 1.25C7.6019 1.24959 6.84506 1.48982 6.21149 1.93757C5.57792 2.38532 5.09882 3.01856 4.84022 3.75H0.877716V6.25H4.84022C5.09847 6.98192 5.57739 7.61571 6.21097 8.06401C6.84454 8.51232 7.60157 8.75306 8.37772 8.75306C9.15386 8.75306 9.91089 8.51232 10.5445 8.06401C11.178 7.61571 11.657 6.98192 11.9152 6.25H20.8777V3.75H11.9152C11.6566 3.01856 11.1775 2.38532 10.5439 1.93757C9.91038 1.48982 9.15353 1.24959 8.37772 1.25ZM7.12772 5C7.12772 4.66848 7.25941 4.35054 7.49383 4.11612C7.72825 3.8817 8.0462 3.75 8.37772 3.75C8.70924 3.75 9.02718 3.8817 9.2616 4.11612C9.49602 4.35054 9.62772 4.66848 9.62772 5C9.62772 5.33152 9.49602 5.64946 9.2616 5.88388C9.02718 6.1183 8.70924 6.25 8.37772 6.25C8.0462 6.25 7.72825 6.1183 7.49383 5.88388C7.25941 5.64946 7.12772 5.33152 7.12772 5ZM13.3777 11.25C12.6019 11.2496 11.8451 11.4898 11.2115 11.9376C10.5779 12.3853 10.0988 13.0186 9.84022 13.75H0.877716V16.25H9.84022C10.0985 16.9819 10.5774 17.6157 11.211 18.064C11.8445 18.5123 12.6016 18.7531 13.3777 18.7531C14.1539 18.7531 14.9109 18.5123 15.5445 18.064C16.178 17.6157 16.657 16.9819 16.9152 16.25H20.8777V13.75H16.9152C16.6566 13.0186 16.1775 12.3853 15.5439 11.9376C14.9104 11.4898 14.1535 11.2496 13.3777 11.25ZM12.1277 15C12.1277 14.6685 12.2594 14.3505 12.4938 14.1161C12.7283 13.8817 13.0462 13.75 13.3777 13.75C13.7092 13.75 14.0272 13.8817 14.2616 14.1161C14.496 14.3505 14.6277 14.6685 14.6277 15C14.6277 15.3315 14.496 15.6495 14.2616 15.8839C14.0272 16.1183 13.7092 16.25 13.3777 16.25C13.0462 16.25 12.7283 16.1183 12.4938 15.8839C12.2594 15.6495 12.1277 15.3315 12.1277 15Z" fill="#544F4F"/>
</svg>
