<svg width="200" height="200" viewBox="0 0 200 200" fill="none" xmlns="http://www.w3.org/2000/svg">
<path d="M133.333 83.3333C142.537 83.3333 149.999 75.8714 149.999 66.6667C149.999 57.4619 142.537 50 133.333 50C124.128 50 116.666 57.4619 116.666 66.6667C116.666 75.8714 124.128 83.3333 133.333 83.3333Z" stroke="#544F4F" stroke-width="3"/>
<path d="M16.666 104.167L31.266 91.3917C34.9255 88.1923 39.6639 86.5028 44.522 86.6653C49.3802 86.8277 53.9951 88.8299 57.4327 92.2667L93.1827 128.017C95.9569 130.79 99.6206 132.497 103.529 132.835C107.437 133.173 111.34 132.122 114.549 129.867L117.041 128.117C121.671 124.865 127.267 123.28 132.915 123.62C138.562 123.961 143.927 126.207 148.133 129.992L174.999 154.167" stroke="#544F4F" stroke-width="3" stroke-linecap="round"/>
<path d="M183.333 100C183.333 139.283 183.333 158.925 171.124 171.125C158.933 183.333 139.283 183.333 99.9994 183.333C60.716 183.333 41.0744 183.333 28.866 171.125C16.666 158.933 16.666 139.283 16.666 100C16.666 60.7167 16.666 41.075 28.866 28.8667C41.0827 16.6667 60.716 16.6667 99.9994 16.6667C139.283 16.6667 158.924 16.6667 171.124 28.8667C179.241 36.9833 181.958 48.3917 182.874 66.6667" stroke="#544F4F" stroke-width="3" stroke-linecap="round"/>
</svg>
