<svg width="97" height="97" viewBox="0 0 97 97" fill="none" xmlns="http://www.w3.org/2000/svg">
<path d="M48.5 9.09375C26.772 9.09375 9.09375 26.772 9.09375 48.5C9.09375 70.228 26.772 87.9062 48.5 87.9062C70.228 87.9062 87.9062 70.228 87.9062 48.5C87.9062 26.772 70.228 9.09375 48.5 9.09375ZM48.5 15.1562C66.9512 15.1562 81.8438 30.0488 81.8438 48.5C81.8438 66.9512 66.9512 81.8438 48.5 81.8438C30.0488 81.8438 15.1562 66.9512 15.1562 48.5C15.1562 30.0488 30.0488 15.1562 48.5 15.1562ZM50.6825 29.0818L46.3175 33.3438L58.4425 45.4688H27.2812V51.5312H58.4425L46.3175 63.6562L50.6825 67.9182L67.9182 50.6795L70.1007 48.497L67.9182 46.3145L50.6795 29.0788L50.6825 29.0818Z" fill="white"/>
</svg>
