<svg width="48" height="48" viewBox="0 0 48 48" fill="none" xmlns="http://www.w3.org/2000/svg">
<path d="M32 6C34.6522 6 37.1957 7.05357 39.0711 8.92893C40.9464 10.8043 42 13.3478 42 16V32C42 34.6522 40.9464 37.1957 39.0711 39.0711C37.1957 40.9464 34.6522 42 32 42H16C13.3478 42 10.8043 40.9464 8.92893 39.0711C7.05357 37.1957 6 34.6522 6 32V16C6 13.3478 7.05357 10.8043 8.92893 8.92893C10.8043 7.05357 13.3478 6 16 6H32ZM24 16C21.8783 16 19.8434 16.8429 18.3431 18.3431C16.8429 19.8434 16 21.8783 16 24C16 26.1217 16.8429 28.1566 18.3431 29.6569C19.8434 31.1571 21.8783 32 24 32C26.1217 32 28.1566 31.1571 29.6569 29.6569C31.1571 28.1566 32 26.1217 32 24C32 21.8783 31.1571 19.8434 29.6569 18.3431C28.1566 16.8429 26.1217 16 24 16ZM24 20C25.0609 20 26.0783 20.4214 26.8284 21.1716C27.5786 21.9217 28 22.9391 28 24C28 25.0609 27.5786 26.0783 26.8284 26.8284C26.0783 27.5786 25.0609 28 24 28C22.9391 28 21.9217 27.5786 21.1716 26.8284C20.4214 26.0783 20 25.0609 20 24C20 22.9391 20.4214 21.9217 21.1716 21.1716C21.9217 20.4214 22.9391 20 24 20ZM33 13C32.4696 13 31.9609 13.2107 31.5858 13.5858C31.2107 13.9609 31 14.4696 31 15C31 15.5304 31.2107 16.0391 31.5858 16.4142C31.9609 16.7893 32.4696 17 33 17C33.5304 17 34.0391 16.7893 34.4142 16.4142C34.7893 16.0391 35 15.5304 35 15C35 14.4696 34.7893 13.9609 34.4142 13.5858C34.0391 13.2107 33.5304 13 33 13Z" fill="#544F4F"/>
</svg>
