<svg width="25" height="25" viewBox="0 0 25 25" fill="none" xmlns="http://www.w3.org/2000/svg">
<path d="M13.4063 15.698L10.7605 13.0834L10.7917 13.0521C12.557 11.0912 13.8756 8.77036 14.6563 6.25004H17.7084V4.16671H10.4167V2.08337H8.33342V4.16671H1.04175V6.25004H12.6772C11.9792 8.25004 10.8751 10.1563 9.37508 11.823C8.40633 10.75 7.60425 9.57296 6.96883 8.33337H4.8855C5.64592 10.0313 6.68758 11.6355 7.98967 13.0834L2.68758 18.3125L4.16675 19.7917L9.37508 14.5834L12.6147 17.823L13.4063 15.698ZM19.2709 10.4167H17.1876L12.5001 22.9167H14.5834L15.7501 19.7917H20.698L21.8751 22.9167H23.9584L19.2709 10.4167ZM16.5417 17.7084L18.2292 13.198L19.9167 17.7084H16.5417Z" fill="#544F4F"/>
</svg>
