<svg width="25" height="25" viewBox="0 0 25 25" fill="none" xmlns="http://www.w3.org/2000/svg">
<path d="M2.08325 12.5C2.08325 8.57183 2.08325 6.60725 3.30409 5.38746C4.52492 4.16767 6.48846 4.16663 10.4166 4.16663H14.5833C18.5114 4.16663 20.476 4.16663 21.6958 5.38746C22.9155 6.60829 22.9166 8.57183 22.9166 12.5C22.9166 16.4281 22.9166 18.3927 21.6958 19.6125C20.4749 20.8323 18.5114 20.8333 14.5833 20.8333H10.4166C6.48846 20.8333 4.52388 20.8333 3.30409 19.6125C2.08429 18.3916 2.08325 16.4281 2.08325 12.5Z" stroke="#544F4F" stroke-width="3"/>
<path d="M10.4166 16.6666H6.24992M14.5833 16.6666H13.0208M2.08325 10.4166H22.9166" stroke="#544F4F" stroke-width="3" stroke-linecap="round"/>
</svg>
