<svg width="55" height="55" viewBox="0 0 55 55" fill="none" xmlns="http://www.w3.org/2000/svg">
<path fill-rule="evenodd" clip-rule="evenodd" d="M27.5 27.5C29.3234 27.5 31.072 26.7757 32.3614 25.4864C33.6507 24.197 34.375 22.4484 34.375 20.625C34.375 18.8016 33.6507 17.053 32.3614 15.7636C31.072 14.4743 29.3234 13.75 27.5 13.75C25.6766 13.75 23.928 14.4743 22.6386 15.7636C21.3493 17.053 20.625 18.8016 20.625 20.625C20.625 22.4484 21.3493 24.197 22.6386 25.4864C23.928 26.7757 25.6766 27.5 27.5 27.5ZM27.5 19.25C27.8647 19.25 28.2144 19.3949 28.4723 19.6527C28.7301 19.9106 28.875 20.2603 28.875 20.625C28.875 20.9897 28.7301 21.3394 28.4723 21.5973C28.2144 21.8551 27.8647 22 27.5 22C27.1353 22 26.7856 21.8551 26.5277 21.5973C26.2699 21.3394 26.125 20.9897 26.125 20.625C26.125 20.2603 26.2699 19.9106 26.5277 19.6527C26.7856 19.3949 27.1353 19.25 27.5 19.25Z" fill="#544F4F"/>
<path fill-rule="evenodd" clip-rule="evenodd" d="M13.75 20.0365C13.75 28.0472 21.4638 41.25 27.5 41.25C33.5362 41.25 41.25 28.0472 41.25 20.0365C41.25 12.045 35.1367 5.5 27.5 5.5C19.8633 5.5 13.75 12.0477 13.75 20.0365ZM35.75 20.0365C35.75 25.41 29.7083 35.75 27.5 35.75C25.2917 35.75 19.25 25.41 19.25 20.0365C19.25 15.004 22.99 11 27.5 11C32.01 11 35.75 15.004 35.75 20.0365Z" fill="#544F4F"/>
<path d="M37.7579 27.5C37.0286 27.5 36.3291 27.2103 35.8134 26.6945C35.2976 26.1788 35.0079 25.4793 35.0079 24.75C35.0079 24.0207 35.2976 23.3212 35.8134 22.8055C36.3291 22.2897 37.0286 22 37.7579 22C39.5608 22.0003 41.314 22.5912 42.7492 23.6823C44.1845 24.7734 45.2228 26.3046 45.7054 28.0417L49.5279 41.7917C49.8684 43.0175 49.9209 44.3054 49.6811 45.5548C49.4413 46.8042 48.9159 47.9812 48.1458 48.9938C47.3758 50.0065 46.382 50.8273 45.2421 51.3922C44.1022 51.957 42.8471 52.2506 41.5749 52.25H13.4204C12.1487 52.2498 10.8942 51.9556 9.75505 51.3903C8.61585 50.8251 7.62275 50.0042 6.8533 48.9916C6.08386 47.9791 5.55891 46.8024 5.31945 45.5534C5.07999 44.3045 5.13251 43.0171 5.4729 41.7917L9.29265 28.0417C9.77536 26.3042 10.8141 24.7726 12.2499 23.6815C13.6857 22.5903 15.4395 21.9997 17.2429 22C17.9723 22 18.6717 22.2897 19.1874 22.8055C19.7032 23.3212 19.9929 24.0207 19.9929 24.75C19.9929 25.4793 19.7032 26.1788 19.1874 26.6945C18.6717 27.2103 17.9723 27.5 17.2429 27.5C16.6422 27.5003 16.0581 27.6972 15.5799 28.0607C15.1017 28.4242 14.7556 28.9343 14.5947 29.513L10.7722 43.263C10.6584 43.6719 10.6409 44.1015 10.7208 44.5183C10.8008 44.9351 10.9762 45.3277 11.2332 45.6654C11.4902 46.0031 11.8219 46.2768 12.2023 46.465C12.5827 46.6531 13.0015 46.7507 13.4259 46.75H41.5804C42.0043 46.7498 42.4225 46.6516 42.8022 46.4631C43.1819 46.2746 43.5129 46.0008 43.7693 45.6632C44.0257 45.3256 44.2005 44.9333 44.2802 44.517C44.3599 44.1006 44.3423 43.6714 44.2287 43.263L40.4089 29.513C40.2478 28.9338 39.9013 28.4234 39.4226 28.0599C38.9438 27.6963 38.3591 27.4997 37.7579 27.5Z" fill="#544F4F"/>
</svg>
