<svg width="21" height="21" viewBox="0 0 21 21" fill="none" xmlns="http://www.w3.org/2000/svg">
<path fill-rule="evenodd" clip-rule="evenodd" d="M10.762 13.589C10.6057 13.7453 10.3938 13.833 10.1728 13.833C9.95182 13.833 9.7399 13.7453 9.58363 13.589L4.86946 8.87488C4.78987 8.79801 4.72638 8.70605 4.68271 8.60438C4.63903 8.50271 4.61604 8.39336 4.61508 8.28271C4.61412 8.17206 4.63521 8.06233 4.67711 7.95992C4.71901 7.8575 4.78089 7.76446 4.85913 7.68622C4.93737 7.60797 5.03042 7.54609 5.13283 7.50419C5.23524 7.46229 5.34498 7.44121 5.45563 7.44217C5.56628 7.44313 5.67563 7.46612 5.7773 7.50979C5.87897 7.55347 5.97092 7.61695 6.04779 7.69655L10.1728 11.8215L14.2978 7.69655C14.455 7.54475 14.6655 7.46075 14.884 7.46265C15.1025 7.46455 15.3115 7.55219 15.466 7.7067C15.6205 7.8612 15.7081 8.07021 15.71 8.28871C15.7119 8.50721 15.6279 8.71771 15.4761 8.87488L10.762 13.589Z" fill="#544F4F"/>
</svg>
