<svg width="80" height="80" viewBox="0 0 80 80" fill="none" xmlns="http://www.w3.org/2000/svg">
<path d="M55 5C56.3261 5 57.5979 5.52678 58.5355 6.46447C59.4732 7.40215 60 8.67392 60 10V70C60 71.3261 59.4732 72.5979 58.5355 73.5355C57.5979 74.4732 56.3261 75 55 75H25C23.6739 75 22.4021 74.4732 21.4645 73.5355C20.5268 72.5979 20 71.3261 20 70V10C20 8.67392 20.5268 7.40215 21.4645 6.46447C22.4021 5.52678 23.6739 5 25 5H55ZM25 0C22.3478 0 19.8043 1.05357 17.9289 2.92893C16.0536 4.8043 15 7.34784 15 10V70C15 72.6522 16.0536 75.1957 17.9289 77.0711C19.8043 78.9464 22.3478 80 25 80H55C57.6522 80 60.1957 78.9464 62.0711 77.0711C63.9464 75.1957 65 72.6522 65 70V10C65 7.34784 63.9464 4.8043 62.0711 2.92893C60.1957 1.05357 57.6522 0 55 0L25 0Z" fill="black" fill-opacity="0.7"/>
<path d="M40 70C41.3261 70 42.5979 69.4732 43.5355 68.5355C44.4732 67.5979 45 66.3261 45 65C45 63.6739 44.4732 62.4021 43.5355 61.4645C42.5979 60.5268 41.3261 60 40 60C38.6739 60 37.4021 60.5268 36.4645 61.4645C35.5268 62.4021 35 63.6739 35 65C35 66.3261 35.5268 67.5979 36.4645 68.5355C37.4021 69.4732 38.6739 70 40 70Z" fill="black" fill-opacity="0.7"/>
</svg>
