<svg width="40" height="40" viewBox="0 0 40 40" fill="none" xmlns="http://www.w3.org/2000/svg">
<path d="M3.3335 3.33331H36.6668V36.6666H3.3335V3.33331ZM6.66683 6.66665V13.3333H13.3335V6.66665H6.66683ZM16.6668 6.66665V13.3333H23.3335V6.66665H16.6668ZM26.6668 6.66665V13.3333H33.3335V6.66665H26.6668ZM33.3335 16.6666H26.6668V23.3333H33.3335V16.6666ZM33.3335 26.6666H26.6668V33.3333H33.3335V26.6666ZM23.3335 33.3333V26.6666H16.6668V33.3333H23.3335ZM13.3335 33.3333V26.6666H6.66683V33.3333H13.3335ZM6.66683 23.3333H13.3335V16.6666H6.66683V23.3333ZM16.6668 16.6666V23.3333H23.3335V16.6666H16.6668Z" fill="#544F4F"/>
</svg>
