<svg width="25" height="25" viewBox="0 0 25 25" fill="none" xmlns="http://www.w3.org/2000/svg">
<path d="M20.8654 6.6058L12.6923 2.97118C12.6322 2.94289 12.5665 2.92822 12.5 2.92822C12.4336 2.92822 12.3679 2.94289 12.3077 2.97118L4.13465 6.6058C4.05014 6.64266 3.97802 6.70306 3.92687 6.77977C3.87573 6.85649 3.84772 6.9463 3.84619 7.03849V9.61541C3.84619 14.3462 6.67311 20.077 12.327 22.0577C12.4392 22.0958 12.5609 22.0958 12.6731 22.0577C18.327 20.077 21.1539 14.3462 21.1539 9.61541V7.03849C21.1524 6.9463 21.1244 6.85649 21.0732 6.77977C21.0221 6.70306 20.9499 6.64266 20.8654 6.6058ZM17.0077 9.78849L11.9308 16.252C11.857 16.3451 11.7644 16.4217 11.659 16.4767C11.5537 16.5317 11.4379 16.5639 11.3193 16.5712L11.2693 16.5731C11.0457 16.5727 10.8314 16.4839 10.6731 16.326L8.05773 13.7106C7.9 13.5525 7.81154 13.3382 7.81182 13.1149C7.81209 12.8915 7.90106 12.6775 8.05917 12.5197C8.21728 12.362 8.43157 12.2736 8.6549 12.2738C8.87823 12.2741 9.09231 12.3631 9.25004 12.5212L11.1943 14.4654L15.6847 8.74907C15.825 8.58083 16.0254 8.47393 16.2434 8.45103C16.4613 8.42813 16.6795 8.49104 16.8518 8.62642C17.0241 8.76179 17.1368 8.95897 17.1661 9.17611C17.1954 9.39325 17.1389 9.61326 17.0087 9.78945L17.0077 9.78849Z" fill="#544F4F"/>
</svg>
