<svg width="25" height="25" viewBox="0 0 25 25" fill="none" xmlns="http://www.w3.org/2000/svg">
<path d="M12.5 15.625C13.3288 15.625 14.1237 15.2958 14.7097 14.7097C15.2958 14.1237 15.625 13.3288 15.625 12.5C15.625 11.6712 15.2958 10.8763 14.7097 10.2903C14.1237 9.70424 13.3288 9.375 12.5 9.375C11.6712 9.375 10.8763 9.70424 10.2903 10.2903C9.70424 10.8763 9.375 11.6712 9.375 12.5C9.375 13.3288 9.70424 14.1237 10.2903 14.7097C10.8763 15.2958 11.6712 15.625 12.5 15.625Z" stroke="black" stroke-width="3" stroke-linecap="round" stroke-linejoin="round"/>
<path d="M20.4396 10.8281L19.2969 8.0677L20.8334 6.24999L18.75 4.16666L16.9427 5.71145L14.123 4.55208L13.474 2.08333H11.4386L10.7802 4.58437L8.02504 5.74583L6.25004 4.16666L4.16671 6.24999L5.68025 8.11354L4.55525 10.8812L2.08337 11.4583V13.5417L4.58442 14.225L5.74587 16.9792L4.16671 18.75L6.25004 20.8333L8.11567 19.3125L10.8302 20.4292L11.4584 22.9167H13.5417L14.1709 20.4302L16.9323 19.2865C17.3927 19.6167 18.75 20.8333 18.75 20.8333L20.8334 18.75L19.2875 16.9271L20.4313 14.1646L22.9167 13.5187V11.4583L20.4396 10.8281Z" stroke="black" stroke-width="3" stroke-linecap="round" stroke-linejoin="round"/>
</svg>
