<svg width="48" height="48" viewBox="0 0 48 48" fill="none" xmlns="http://www.w3.org/2000/svg">
<path d="M34 44C32.3333 44 30.9167 43.4167 29.75 42.25C28.5833 41.0833 28 39.6667 28 38C28 37.8 28.05 37.3333 28.15 36.6L14.1 28.4C13.5667 28.9 12.95 29.292 12.25 29.576C11.55 29.86 10.8 30.0013 10 30C8.33333 30 6.91667 29.4167 5.75 28.25C4.58333 27.0833 4 25.6667 4 24C4 22.3333 4.58333 20.9167 5.75 19.75C6.91667 18.5833 8.33333 18 10 18C10.8 18 11.55 18.142 12.25 18.426C12.95 18.71 13.5667 19.1013 14.1 19.6L28.15 11.4C28.0833 11.1667 28.042 10.942 28.026 10.726C28.01 10.51 28.0013 10.268 28 10C28 8.33333 28.5833 6.91667 29.75 5.75C30.9167 4.58333 32.3333 4 34 4C35.6667 4 37.0833 4.58333 38.25 5.75C39.4167 6.91667 40 8.33333 40 10C40 11.6667 39.4167 13.0833 38.25 14.25C37.0833 15.4167 35.6667 16 34 16C33.2 16 32.45 15.858 31.75 15.574C31.05 15.29 30.4333 14.8987 29.9 14.4L15.85 22.6C15.9167 22.8333 15.9587 23.0587 15.976 23.276C15.9933 23.4933 16.0013 23.7347 16 24C15.9987 24.2653 15.9907 24.5073 15.976 24.726C15.9613 24.9447 15.9193 25.1693 15.85 25.4L29.9 33.6C30.4333 33.1 31.05 32.7087 31.75 32.426C32.45 32.1433 33.2 32.0013 34 32C35.6667 32 37.0833 32.5833 38.25 33.75C39.4167 34.9167 40 36.3333 40 38C40 39.6667 39.4167 41.0833 38.25 42.25C37.0833 43.4167 35.6667 44 34 44ZM34 40C34.5667 40 35.042 39.8087 35.426 39.426C35.81 39.0433 36.0013 38.568 36 38C35.9987 37.432 35.8067 36.9573 35.424 36.576C35.0413 36.1947 34.5667 36.0027 34 36C33.4333 35.9973 32.9587 36.1893 32.576 36.576C32.1933 36.9627 32.0013 37.4373 32 38C31.9987 38.5627 32.1907 39.038 32.576 39.426C32.9613 39.814 33.436 40.0053 34 40ZM10 26C10.5667 26 11.042 25.808 11.426 25.424C11.81 25.04 12.0013 24.5653 12 24C11.9987 23.4347 11.8067 22.96 11.424 22.576C11.0413 22.192 10.5667 22 10 22C9.43333 22 8.95867 22.192 8.576 22.576C8.19333 22.96 8.00133 23.4347 8 24C7.99867 24.5653 8.19067 25.0407 8.576 25.426C8.96133 25.8113 9.436 26.0027 10 26ZM34 12C34.5667 12 35.042 11.808 35.426 11.424C35.81 11.04 36.0013 10.5653 36 10C35.9987 9.43467 35.8067 8.96 35.424 8.576C35.0413 8.192 34.5667 8 34 8C33.4333 8 32.9587 8.192 32.576 8.576C32.1933 8.96 32.0013 9.43467 32 10C31.9987 10.5653 32.1907 11.0407 32.576 11.426C32.9613 11.8113 33.436 12.0027 34 12Z" fill="#544F4F"/>
</svg>
