<svg width="48" height="48" viewBox="0 0 48 48" fill="none" xmlns="http://www.w3.org/2000/svg">
<path d="M24.464 6.5H19.536C17.91 6.5 16.598 6.5 15.536 6.586C14.444 6.676 13.484 6.866 12.596 7.318C11.1838 8.03674 10.0356 9.18428 9.316 10.596C8.864 11.484 8.676 12.444 8.586 13.536C8.5 14.598 8.5 15.91 8.5 17.536V30.464C8.5 32.09 8.5 33.402 8.586 34.464C8.676 35.556 8.866 36.516 9.318 37.404C10.0367 38.8162 11.1843 39.9644 12.596 40.684C13.484 41.136 14.444 41.324 15.536 41.414C16.598 41.5 17.91 41.5 19.536 41.5H24.464C26.09 41.5 27.402 41.5 28.464 41.414C29.556 41.324 30.516 41.134 31.404 40.682C32.8162 39.9633 33.9644 38.8157 34.684 37.404C35.136 36.516 35.324 35.556 35.414 34.464C35.5 33.402 35.5 32.09 35.5 30.464V30C35.5 29.6022 35.342 29.2206 35.0607 28.9393C34.7794 28.658 34.3978 28.5 34 28.5C33.6022 28.5 33.2206 28.658 32.9393 28.9393C32.658 29.2206 32.5 29.6022 32.5 30V30.4C32.5 32.104 32.5 33.294 32.424 34.22C32.348 35.126 32.21 35.648 32.01 36.044C31.578 36.89 30.89 37.578 30.044 38.01C29.648 38.21 29.126 38.35 28.218 38.424C27.294 38.498 26.106 38.5 24.4 38.5H19.6C17.896 38.5 16.706 38.5 15.78 38.424C14.874 38.348 14.352 38.21 13.958 38.01C13.1108 37.579 12.4219 36.8907 11.99 36.044C11.79 35.648 11.65 35.126 11.576 34.218C11.502 33.294 11.5 32.104 11.5 30.4V17.6C11.5 15.896 11.5 14.706 11.576 13.78C11.65 12.874 11.79 12.352 11.99 11.958C12.4216 11.1105 13.1105 10.4216 13.958 9.99C14.352 9.79 14.874 9.65 15.782 9.576C16.706 9.502 17.896 9.5 19.6 9.5H24.4C26.106 9.5 27.294 9.5 28.22 9.576C29.126 9.65 29.648 9.79 30.044 9.99C30.89 10.422 31.578 11.11 32.01 11.958C32.21 12.352 32.35 12.874 32.424 13.782C32.498 14.706 32.5 15.896 32.5 17.6V18C32.5 18.3978 32.658 18.7794 32.9393 19.0607C33.2206 19.342 33.6022 19.5 34 19.5C34.3978 19.5 34.7794 19.342 35.0607 19.0607C35.342 18.7794 35.5 18.3978 35.5 18V17.536C35.5 15.91 35.5 14.598 35.414 13.536C35.324 12.444 35.134 11.484 34.682 10.596C33.9633 9.18384 32.8157 8.03561 31.404 7.316C30.516 6.864 29.556 6.676 28.464 6.586C27.402 6.5 26.09 6.5 24.464 6.5Z" fill="#443E3E"/>
<path d="M24.9401 16.94C25.0775 16.7926 25.2431 16.6744 25.4271 16.5924C25.6111 16.5105 25.8097 16.4664 26.0111 16.4628C26.2125 16.4593 26.4126 16.4963 26.5993 16.5718C26.7861 16.6472 26.9558 16.7595 27.0982 16.9019C27.2407 17.0444 27.3529 17.214 27.4284 17.4008C27.5038 17.5876 27.5409 17.7876 27.5373 17.989C27.5338 18.1905 27.4897 18.3891 27.4077 18.5731C27.3257 18.7571 27.2075 18.9227 27.0601 19.06L23.6201 22.5H40.0001C40.398 22.5 40.7795 22.658 41.0608 22.9393C41.3421 23.2206 41.5001 23.6022 41.5001 24C41.5001 24.3978 41.3421 24.7794 41.0608 25.0607C40.7795 25.342 40.398 25.5 40.0001 25.5H23.6201L27.0601 28.94C27.2075 29.0773 27.3257 29.2429 27.4077 29.4269C27.4897 29.6109 27.5338 29.8096 27.5373 30.011C27.5409 30.2124 27.5038 30.4124 27.4284 30.5992C27.3529 30.786 27.2407 30.9556 27.0982 31.0981C26.9558 31.2405 26.7861 31.3528 26.5993 31.4282C26.4126 31.5037 26.2125 31.5407 26.0111 31.5372C25.8097 31.5336 25.6111 31.4895 25.4271 31.4076C25.2431 31.3256 25.0775 31.2074 24.9401 31.06L18.9401 25.06C18.6592 24.7788 18.5015 24.3975 18.5015 24C18.5015 23.6025 18.6592 23.2213 18.9401 22.94L24.9401 16.94Z" fill="#443E3E"/>
</svg>
