<svg width="48" height="48" viewBox="0 0 48 48" fill="none" xmlns="http://www.w3.org/2000/svg">
<path d="M33.2001 11.64C31.8332 10.0791 31.0799 8.0748 31.0801 6H24.9001V30.8C24.8534 32.1424 24.2871 33.4142 23.3207 34.347C22.3543 35.2798 21.0633 35.8008 19.7201 35.8C16.8801 35.8 14.5201 33.48 14.5201 30.6C14.5201 27.16 17.8401 24.58 21.2601 25.64V19.32C14.3601 18.4 8.32007 23.76 8.32007 30.6C8.32007 37.26 13.8401 42 19.7001 42C25.9801 42 31.0801 36.9 31.0801 30.6V18.02C33.5861 19.8197 36.5948 20.7853 39.6801 20.78V14.6C39.6801 14.6 35.9201 14.78 33.2001 11.64Z" fill="#544F4F"/>
</svg>
