<svg width="21" height="21" viewBox="0 0 21 21" fill="none" xmlns="http://www.w3.org/2000/svg">
<path d="M10.2369 19.2938C5.52531 19.2938 1.70605 15.4746 1.70605 10.763C1.70605 6.05143 5.52531 2.23218 10.2369 2.23218C14.9485 2.23218 18.7677 6.05143 18.7677 10.763C18.7677 15.4746 14.9485 19.2938 10.2369 19.2938ZM10.2369 17.5877C12.0469 17.5877 13.7828 16.8687 15.0627 15.5888C16.3425 14.3089 17.0616 12.573 17.0616 10.763C17.0616 8.953 16.3425 7.21712 15.0627 5.93724C13.7828 4.65737 12.0469 3.93834 10.2369 3.93834C8.42687 3.93834 6.69099 4.65737 5.41112 5.93724C4.13125 7.21712 3.41222 8.953 3.41222 10.763C3.41222 12.573 4.13125 14.3089 5.41112 15.5888C6.69099 16.8687 8.42687 17.5877 10.2369 17.5877ZM11.09 10.763H14.5023V12.4692H9.3838V6.49759H11.09V10.763Z" fill="#544F4F"/>
</svg>
