<svg width="35" height="35" viewBox="0 0 35 35" fill="none" xmlns="http://www.w3.org/2000/svg">
<path d="M4.375 32.0834V2.91669L6.5625 5.10419L8.75 2.91669L10.9375 5.10419L13.125 2.91669L15.3125 5.10419L17.5 2.91669L19.6875 5.10419L21.875 2.91669L24.0625 5.10419L26.25 2.91669L28.4375 5.10419L30.625 2.91669V32.0834L28.4375 29.8959L26.25 32.0834L24.0625 29.8959L21.875 32.0834L19.6875 29.8959L17.5 32.0834L15.3125 29.8959L13.125 32.0834L10.9375 29.8959L8.75 32.0834L6.5625 29.8959L4.375 32.0834ZM8.75 24.7917H26.25V21.875H8.75V24.7917ZM8.75 18.9584H26.25V16.0417H8.75V18.9584ZM8.75 13.125H26.25V10.2084H8.75V13.125ZM7.29167 27.8542H27.7083V7.14585H7.29167V27.8542Z" fill="black" fill-opacity="0.7"/>
</svg>
