<svg width="30" height="30" viewBox="0 0 30 30" fill="none" xmlns="http://www.w3.org/2000/svg">
<path d="M25.8612 11.0876L27.5 18.9114H25.6225C25.5475 18.5839 25.4887 18.2414 25.4137 17.9139C25.3387 17.5864 25.4138 17.7501 25.22 17.7501H22.9412C22.9167 17.7459 22.8915 17.7468 22.8674 17.7528C22.8432 17.7589 22.8206 17.7699 22.8009 17.7852C22.7813 17.8005 22.765 17.8197 22.7533 17.8417C22.7415 17.8636 22.7344 17.8878 22.7325 17.9126C22.6275 18.2126 22.5238 18.5101 22.405 18.7926C22.285 19.0751 22.3 18.9264 22.255 18.9264H20.245V18.7476C21.2383 16.3934 22.2313 14.0347 23.2238 11.6714C23.2823 11.5108 23.3872 11.3713 23.5252 11.2705C23.6632 11.1697 23.828 11.1121 23.9987 11.1051C24.6537 11.0751 25.25 11.0901 25.8612 11.0901M24.4613 13.2814L23.4025 16.1276H25.0712L24.4613 13.2814ZM7.64 16.4076V16.2289C8.23625 14.5751 8.84625 12.9214 9.4275 11.2676C9.4275 11.1339 9.5475 11.0739 9.69625 11.0739H11.6775V11.2676L8.59375 18.7176C8.5791 18.7794 8.54184 18.8334 8.48931 18.869C8.43678 18.9047 8.3728 18.9193 8.31 18.9101H6.5825C6.4325 18.9101 6.37375 18.9101 6.32875 18.7164C5.77875 16.5714 5.21125 14.4264 4.66 12.2664C4.63315 12.1548 4.56357 12.0583 4.46625 11.9976C3.89135 11.6768 3.28208 11.4218 2.65 11.2376C2.65 11.2376 2.545 11.1626 2.5 11.1339C2.56347 11.1169 2.63028 11.1169 2.69375 11.1339H5.67375C5.79822 11.1149 5.92528 11.1225 6.04661 11.1561C6.16795 11.1897 6.28081 11.2485 6.37782 11.3288C6.47483 11.409 6.55379 11.5089 6.60952 11.6218C6.66526 11.7347 6.69652 11.858 6.70125 11.9839L7.55125 16.3476C7.54633 16.3824 7.54633 16.4178 7.55125 16.4526L7.64 16.4076ZM14.5825 18.6126L14.8812 16.8689L15.09 16.9889C15.8509 17.382 16.7234 17.5029 17.5625 17.3314C17.7229 17.3176 17.8751 17.2543 17.9978 17.1501C18.1206 17.0459 18.2078 16.9061 18.2475 16.7501C18.2635 16.5944 18.2287 16.4377 18.1483 16.3034C18.0678 16.1691 17.9461 16.0645 17.8013 16.0051C17.5025 15.8114 17.1762 15.6626 16.8925 15.4689C16.525 15.2641 16.1848 15.0138 15.88 14.7239C15.5708 14.354 15.4014 13.8872 15.4014 13.4051C15.4014 12.923 15.5708 12.4562 15.88 12.0864C16.3287 11.5964 16.9153 11.2538 17.5625 11.1039C18.5486 10.8568 19.5859 10.9086 20.5425 11.2526H20.6175L20.3337 12.8614C19.9577 12.7465 19.5743 12.6571 19.1863 12.5939C18.7993 12.5638 18.4107 12.5638 18.0237 12.5939C17.8841 12.6219 17.7553 12.6891 17.6525 12.7876C17.6029 12.8299 17.5631 12.8824 17.5358 12.9415C17.5085 13.0006 17.4944 13.065 17.4944 13.1301C17.4944 13.1952 17.5085 13.2596 17.5358 13.3187C17.5631 13.3779 17.6029 13.4304 17.6525 13.4726C17.8308 13.6368 18.0242 13.7809 18.2325 13.9051C18.62 14.1426 19.0225 14.3364 19.395 14.5901C19.7031 14.7785 19.9587 15.0417 20.1379 15.3552C20.3172 15.6688 20.4143 16.0225 20.4203 16.3836C20.4263 16.7447 20.3409 17.1015 20.1722 17.4208C20.0034 17.7401 19.7567 18.0116 19.455 18.2101C18.8611 18.6703 18.1472 18.9498 17.3987 19.0151C16.4411 19.119 15.4727 18.9806 14.5825 18.6126ZM11.275 18.9101L12.5562 11.0889H14.5975L13.3162 18.9101H11.275Z" fill="black"/>
</svg>
